<?xml version="1.0" encoding="utf-8"?>
<!-- Generator: Adobe Illustrator 19.0.0, SVG Export Plug-In . SVG Version: 6.00 Build 0)  -->
<svg version="1.1" id="Calque_1" xmlns="http://www.w3.org/2000/svg" xmlns:xlink="http://www.w3.org/1999/xlink" x="0px" y="0px"
	 viewBox="0 0 250 250" style="enable-background:new 0 0 250 250;" xml:space="preserve">
<style type="text/css">
	.st0{opacity:0.1;}
	.st1{fill:#E94364;stroke:#5F5C74;stroke-width:8;stroke-linecap:round;stroke-linejoin:round;stroke-miterlimit:10;}
	.st2{fill:#E30613;stroke:#FFFFFF;stroke-width:8;stroke-linecap:round;stroke-linejoin:round;stroke-miterlimit:10;}
	.st3{fill:#FFFFFF;}
</style>
<ellipse class="st0" cx="125" cy="227.8" rx="112.5" ry="19.3"/>
<path class="st1" d="M206,148.9c0,45.9-37.2,78.9-83,78.9s-83-33-83-78.9C40,72.1,123,7.8,123,7.8S206,72.1,206,148.9z"/>
<g id="XMLID_4_">
	<path id="XMLID_8_" class="st1" d="M234.2,77c0,20.5-16.6,35.3-37.2,35.3c-20.5,0-37.2-14.8-37.2-35.3c0-34.4,37.2-63.2,37.2-63.2
		S234.2,42.6,234.2,77z"/>
	<g id="XMLID_5_">
		<line id="XMLID_2_" class="st2" x1="185.4" y1="73.2" x2="208.7" y2="73.2"/>
		<line id="XMLID_1_" class="st2" x1="197" y1="61.6" x2="197" y2="84.8"/>
	</g>
</g>
<g id="XMLID_6_">
	<path id="XMLID_7_" class="st3" d="M126.5,151.8h-13.1c-1.9,0-3.2-0.4-4.1-1.3c-0.8-0.8-1.2-2.2-1.2-4.1v-32.3
		c0-1.9,0.4-3.3,1.2-4.1c0.8-0.8,2.2-1.2,4-1.2h13.9c2.1,0,3.8,0.1,5.3,0.4c1.5,0.3,2.9,0.7,4,1.5c1,0.6,1.9,1.4,2.7,2.3
		c0.8,0.9,1.4,2,1.8,3.1c0.4,1.1,0.6,2.3,0.6,3.6c0,4.3-2.1,7.4-6.4,9.4c5.6,1.8,8.5,5.3,8.5,10.5c0,2.4-0.6,4.6-1.8,6.5
		s-2.9,3.3-5,4.3c-1.3,0.5-2.8,0.9-4.5,1.2S128.7,151.8,126.5,151.8z M116.8,115.4v11.1h8c2.2,0,3.8-0.2,5-0.6
		c1.2-0.4,2.1-1.2,2.7-2.3c0.5-0.8,0.7-1.7,0.7-2.8c0-2.2-0.8-3.6-2.3-4.3c-1.5-0.7-3.9-1.1-7.1-1.1H116.8z M125.8,132.8h-9.1v12.5
		h9.3c5.9,0,8.8-2.1,8.8-6.4c0-2.2-0.8-3.7-2.3-4.7S128.8,132.8,125.8,132.8z"/>
</g>
</svg>
