<?xml version="1.0" encoding="utf-8"?>
<!-- Generator: Adobe Illustrator 19.0.0, SVG Export Plug-In . SVG Version: 6.00 Build 0)  -->
<svg version="1.1" id="Calque_1" xmlns="http://www.w3.org/2000/svg" xmlns:xlink="http://www.w3.org/1999/xlink" x="0px" y="0px"
	 viewBox="-559 141 800 800" style="enable-background:new -559 141 800 800;" xml:space="preserve">
<style type="text/css">
	.st0{opacity:0.1;enable-background:new    ;}
	.st1{fill:#FF3F62;}
	.st2{fill:#FFFFFF;}
</style>
<g id="_x33_">
	<g>
		<path class="st0" d="M48.7,730.2c-3.9-3.7-10-4.9-15.2-2.8l-4.3,1.7l-162.3-153.3l22.5-21.2l53.1,50.1c0.1,0.2,0.3,0.2,0.7,0.2
			h86.4l1.6,4.5c0.7,1.9,1.8,3.7,3.4,5.1c5.4,5.1,14.2,5.1,19.6,0c5.4-5.1,5.4-13.4,0-18.5c-5.4-5.1-14.2-5.1-19.6,0
			c-1.1,1.1-2,2.2-2.7,3.5l-1.9,3.7h-86.4l-52.8-49.9l22-20.8H48.5l1.7,4.1c0.7,1.7,1.8,3.3,3.1,4.6c5.4,5.1,14.2,5.1,19.6,0
			c5.4-5.1,5.4-13.4,0-18.5c-5.4-5.1-14.2-5.1-19.6,0c-1.2,1.2-2.2,2.5-2.9,4.1l-1.8,3.9H-87.6c-0.2,0-0.4,0.1-0.7,0.2l-22.4,21.1
			l-22.5-21.2L46.7,361.1l4.3,1.7c5.2,2,11.2,1,15.2-2.8c5.4-5.1,5.4-13.4,0-18.5c-5.4-5.1-14.2-5.1-19.6,0
			c-3.9,3.7-5.2,9.5-2.9,14.3l1.8,4l-179.7,169.7l-22.5-21.2l94-88.8c0.1-0.2,0.2-0.4,0.2-0.6v-25.7l4.7-1.5c2-0.6,3.9-1.7,5.4-3.2
			c5.4-5.1,5.4-13.4,0-18.5c-5.4-5.1-14.2-5.1-19.6,0c-5.4,5.1-5.4,13.4,0,18.5c1.1,1.1,2.4,1.9,3.7,2.5l3.9,1.8v25.7l-93.8,88.5
			l-51.5-48.6v-87.7l3.8-1.8c1.3-0.6,2.7-1.5,3.7-2.5c5.4-5.1,5.4-13.4,0-18.5c-5.4-5.1-14.2-5.1-19.6,0c-5.4,5.1-5.4,13.4,0,18.5
			c1.6,1.5,3.4,2.5,5.4,3.2l4.7,1.5v87.7c0,0.2,0.1,0.4,0.2,0.6l51.7,48.8l-22.5,21.2l-188.2-177.9l1.8-4c2.1-4.9,1-10.6-2.9-14.3
			c-5.4-5.1-14.2-5.1-19.6,0c-5.4,5.1-5.4,13.4,0,18.5c3.9,3.7,10,4.9,15.2,2.8l4.3-1.7l188.4,178l-22.5,21.2l-22.4-21.1
			c-0.1-0.2-0.3-0.2-0.7-0.2h-47.8l-1.8-3.9c-0.7-1.5-1.7-3-2.9-4.1c-5.4-5.1-14.2-5.1-19.6,0s-5.4,13.4,0,18.5
			c5.4,5.1,14.2,5.1,19.6,0c1.3-1.3,2.5-2.9,3.1-4.6l1.7-4.1h47.3l22,20.8l-52.8,49.9h-105.1l-1.9-3.7c-0.7-1.3-1.6-2.5-2.7-3.5
			c-5.4-5.1-14.2-5.1-19.6,0c-5.4,5.1-5.4,13.4,0,18.5c5.4,5.1,14.2,5.1,19.6,0c1.6-1.5,2.6-3.2,3.4-5.1l1.6-4.5h105.1
			c0.2,0,0.4-0.1,0.7-0.2l53.1-50.1l22.5,21.2l-117.2,110.9l-4.3-1.7c-5.2-2-11.2-1-15.2,2.8c-5.4,5.1-5.4,13.4,0,18.5
			c5.4,5.1,14.2,5.1,19.6,0c3.9-3.7,5.2-9.5,2.9-14.3l-1.8-4L-182,577l22.5,21.2l-23.6,22.3c-0.1,0.1-0.2,0.3-0.2,0.6v63.2l-4.2,1.7
			c-1.6,0.6-3.1,1.6-4.4,2.8c-5.4,5.1-5.4,13.4,0,18.5c5.4,5.1,14.2,5.1,19.6,0c5.4-5.1,5.4-13.4,0-18.5c-1.3-1.3-3-2.3-4.8-3
			l-4.4-1.6v-62.8l23.4-22.1l23.4,22.1v26.3l-4.5,1.6c-1.8,0.6-3.5,1.6-4.8,3c-5.4,5.1-5.4,13.4,0,18.5c5.4,5.1,14.2,5.1,19.6,0
			c5.4-5.1,5.4-13.4,0-18.5c-1.2-1.2-2.7-2.1-4.4-2.8l-4.2-1.7v-26.8c0-0.2-0.1-0.4-0.2-0.6l-23.6-22.3l22.5-21.2L27.9,730.3l-1.8,4
			c-2.1,4.9-1,10.6,2.9,14.3c5.4,5.1,14.2,5.1,19.6,0C54.1,743.6,54.1,735.3,48.7,730.2L48.7,730.2z M52.7,597.2
			c4.7,4.5,4.7,11.7,0,16.1c-4.7,4.5-12.4,4.5-17.1,0c-4.7-4.5-4.7-11.7,0-16.1S48,592.7,52.7,597.2L52.7,597.2z M71.6,523.9
			c4.7,4.5,4.7,11.7,0,16.1s-12.4,4.5-17.1,0s-4.7-11.7,0-16.1C59.4,519.4,67,519.4,71.6,523.9L71.6,523.9z M64.8,342.7
			c4.7,4.5,4.7,11.7,0,16.1s-12.4,4.5-17.1,0s-4.7-11.7,0-16.1C52.5,338.3,60.1,338.3,64.8,342.7L64.8,342.7z M-70.8,371.4
			c4.7-4.5,12.4-4.5,17.1,0c4.7,4.5,4.7,11.7,0,16.1s-12.4,4.5-17.1,0S-75.5,375.9-70.8,371.4L-70.8,371.4z M-220.3,365.4
			c-4.7-4.5-4.7-11.7,0-16.1c4.7-4.5,12.4-4.5,17.1,0c4.7,4.5,4.7,11.7,0,16.1C-208,369.7-215.6,369.7-220.3,365.4L-220.3,365.4z
			 M-389.7,350.6c-4.7-4.5-4.7-11.7,0-16.1c4.7-4.5,12.4-4.5,17.1,0c4.7,4.5,4.7,11.7,0,16.1C-377.5,355.1-385.1,355.1-389.7,350.6
			L-389.7,350.6z M-299.5,540c-4.7-4.5-4.7-11.7,0-16.1c4.7-4.5,12.4-4.5,17.1,0c4.7,4.5,4.7,11.7,0,16.1
			C-287.2,544.5-294.7,544.5-299.5,540L-299.5,540z M-387.7,613.3c-4.7-4.5-4.7-11.7,0-16.1s12.4-4.5,17.1,0s4.7,11.7,0,16.1
			C-375.3,617.7-383,617.7-387.7,613.3L-387.7,613.3z M-318.7,705c-4.7-4.5-4.7-11.7,0-16.1s12.4-4.5,17.1,0
			c4.7,4.5,4.7,11.7,0,16.1C-306.3,709.4-314,709.4-318.7,705L-318.7,705z M-173.6,706.1c-4.7,4.5-12.4,4.5-17.1,0
			c-4.7-4.5-4.7-11.7,0-16.1c4.7-4.5,12.4-4.5,17.1,0C-168.8,694.4-168.8,701.7-173.6,706.1L-173.6,706.1z M-125.7,669.7
			c-4.7,4.5-12.4,4.5-17,0c-4.7-4.5-4.7-11.7,0-16.1c4.7-4.5,12.4-4.5,17,0C-121.1,658-121.1,665.2-125.7,669.7L-125.7,669.7z
			 M30.4,747.5c-4.7-4.5-4.7-11.7,0-16.1c4.7-4.5,12.4-4.5,17.1,0c4.7,4.5,4.7,11.7,0,16.1C42.7,751.9,35.1,751.9,30.4,747.5
			L30.4,747.5z"/>
		<path class="st1" d="M126.9,801.5c-5.5-5.2-13.8-6.7-20.9-3.8l-5.8,2.3l-223.5-211.1l31-29.3l73.1,69c0.2,0.2,0.6,0.3,0.9,0.3
			h118.9l2.1,6.2c0.9,2.7,2.5,5.1,4.6,7c7.4,7,19.6,7,27,0c7.4-7,7.4-18.5,0-25.5c-7.4-7-19.6-7-27,0c-1.5,1.4-2.7,3.1-3.6,4.9
			l-2.6,5.1h-119L-90.5,558l30.4-28.7h186.9l2.4,5.7c0.9,2.3,2.4,4.5,4.3,6.3c7.4,7,19.6,7,27,0c7.4-7,7.4-18.5,0-25.5
			c-7.4-7-19.6-7-27,0c-1.7,1.6-3,3.5-4,5.6l-2.5,5.4H-60.7c-0.3,0-0.7,0.1-0.9,0.3l-30.7,29l-31-29.3l247.4-233.7l5.8,2.3
			c7.1,2.9,15.4,1.4,20.9-3.8c7.4-7,7.4-18.5,0-25.5c-7.4-7-19.6-7-27,0c-5.5,5.2-7.1,13.1-4,19.8l2.5,5.5L-125,525.4l-31-29.3
			l129.4-122.2c0.2-0.2,0.3-0.5,0.3-0.8v-35.4l6.5-2c2.8-0.8,5.4-2.3,7.5-4.4c7.4-7,7.4-18.5,0-25.5c-7.4-7-19.6-7-27,0
			c-7.4,7-7.4,18.5,0,25.5c1.5,1.4,3.3,2.5,5.2,3.4l5.4,2.4v35.3l-129.2,122l-70.9-67V306.5l5.3-2.4c1.9-0.8,3.7-2,5.2-3.5
			c7.4-7,7.4-18.5,0-25.5s-19.6-7-27,0s-7.4,18.5,0,25.5c2.1,2,4.6,3.4,7.5,4.4l6.5,2v120.8c0,0.3,0.1,0.6,0.3,0.8l71.3,67.3
			l-30.9,29.4l-259.3-245.1l2.5-5.5c3-6.7,1.5-14.5-4-19.8c-7.4-7-19.6-7-27,0s-7.4,18.5,0,25.5c5.5,5.2,13.8,6.7,20.9,3.8l5.8-2.3
			l259.3,245l-31,29.3l-30.7-29c-0.2-0.2-0.6-0.3-0.9-0.3h-65.9l-2.5-5.4c-0.9-2.1-2.4-4-4-5.6c-7.4-7-19.6-7-27,0
			c-7.4,7-7.4,18.5,0,25.5c7.4,7,19.6,7,27,0c1.9-1.8,3.4-3.9,4.3-6.3l2.4-5.7h65.2l30.4,28.7l-72.7,68.7h-144.4l-2.6-5.1
			c-0.9-1.8-2.1-3.5-3.6-4.9c-7.4-7-19.6-7-27,0s-7.4,18.5,0,25.5c7.4,7,19.6,7,27,0c2.1-2,3.6-4.4,4.6-7l2.1-6.2h144.7
			c0.3,0,0.7-0.1,0.9-0.3l73.1-69l31,29.3l-161.6,152.4l-5.8-2.3c-7.1-2.9-15.4-1.4-20.9,3.8c-7.4,7-7.4,18.5,0,25.5
			c7.4,7,19.6,7,27,0c5.5-5.2,7.1-13.1,4-19.8l-2.5-5.5l161.4-152.6l31,29.3l-32.5,30.7c-0.2,0.2-0.3,0.5-0.3,0.8v87l-5.7,2.3
			c-2.2,0.8-4.3,2.1-6,3.8c-7.4,7-7.4,18.5,0,25.5c7.4,7,19.6,7,27,0c7.4-7,7.4-18.5,0-25.5c-1.9-1.8-4.2-3.2-6.6-4l-6.1-2.2V652
			l32.1-30.4l32.1,30.4v36.2l-6.1,2.2c-2.5,0.8-4.7,2.2-6.6,4c-7.4,7-7.4,18.5,0,25.5s19.6,7,27,0c7.4-7,7.4-18.5,0-25.5
			c-1.7-1.6-3.7-2.9-6-3.8l-5.7-2.3v-36.8c0-0.3-0.1-0.6-0.3-0.8l-32.5-30.7l31-29.3L98.8,801.7l-2.5,5.5c-3,6.7-1.5,14.5,4,19.8
			c7.4,7,19.6,7,27,0C134.3,820,134.3,808.5,126.9,801.5L126.9,801.5z M132.5,618.3c6.5,6.2,6.5,16,0,22.2c-6.5,6.2-17,6.2-23.5,0
			c-6.4-6.2-6.4-16,0-22.2C115.6,612.3,126,612.3,132.5,618.3L132.5,618.3z M158.6,517.5c6.5,6.1,6.5,16,0,22.2
			c-6.5,6.2-17,6.2-23.5,0c-6.5-6.2-6.5-16,0-22.2C141.6,511.4,152.1,511.4,158.6,517.5L158.6,517.5z M149.2,268
			c6.5,6.2,6.5,16,0,22.2c-6.5,6.2-17,6.2-23.5,0c-6.5-6.2-6.5-16,0-22.2C132.2,261.9,142.7,261.9,149.2,268L149.2,268z
			 M-37.5,307.6c6.5-6.2,17-6.2,23.5,0s6.5,16,0,22.2s-17,6.2-23.5,0S-44.1,313.7-37.5,307.6L-37.5,307.6z M-243.4,299.1
			c-6.5-6.2-6.5-16,0-22.2c6.5-6.2,17-6.2,23.5,0c6.5,6.2,6.5,16,0,22.2C-226.4,305.3-237,305.3-243.4,299.1L-243.4,299.1z
			 M-476.7,278.8c-6.5-6.2-6.5-16,0-22.2c6.5-6.2,17-6.2,23.5,0c6.5,6.2,6.5,16,0,22.2C-459.8,285-470.2,285-476.7,278.8
			L-476.7,278.8z M-352.4,539.6c-6.5-6.2-6.5-16,0-22.2s17-6.2,23.5,0c6.5,6.1,6.5,16,0,22.2C-335.4,545.8-345.9,545.8-352.4,539.6
			L-352.4,539.6z M-473.8,640.5c-6.5-6.2-6.5-16,0-22.2c6.5-6.2,17-6.2,23.5,0c6.5,6.2,6.5,16,0,22.2
			C-456.8,646.7-467.3,646.7-473.8,640.5L-473.8,640.5z M-378.8,766.8c-6.5-6.2-6.5-16,0-22.2c6.5-6.2,17-6.2,23.5,0
			c6.5,6.2,6.5,16,0,22.2C-361.8,772.8-372.3,772.8-378.8,766.8L-378.8,766.8z M-179,768.2c-6.5,6.2-17,6.2-23.5,0
			c-6.5-6.2-6.5-16,0-22.2c6.5-6.2,17-6.2,23.5,0C-172.5,752.2-172.5,762.2-179,768.2L-179,768.2z M-113.2,718.1
			c-6.5,6.2-17,6.2-23.5,0c-6.5-6.2-6.5-16,0-22.2c6.5-6.1,17-6.1,23.5,0C-106.7,702.1-106.7,712.1-113.2,718.1L-113.2,718.1z
			 M101.7,825.3c-6.5-6.2-6.5-16,0-22.2c6.5-6.2,17-6.2,23.5,0c6.5,6.1,6.5,16,0,22.2C118.7,831.4,108.3,831.4,101.7,825.3
			L101.7,825.3z"/>
		<path class="st2" d="M-129.8,552.5c-0.6-12.7-11.4-16.6-17.5-16.6c-6.2,0-10.6,3.2-10.6,3.2c-1.9-1.3-6.1-3.3-10.2-3.3
			c-6.7,0-13.8,4.1-16.6,10.9c-2.7,6.8-0.6,14.8,6.9,22.8c7.4,8.1,20.1,14.1,20.1,14.1C-144.9,577.8-129.3,564.5-129.8,552.5z
			 M-157.8,546.5c0,0,6.2,7.1,6.2,10.5c0,3.8-4.4,5.5-5.7,5.5s-3.4-0.2-5.3-2c-1.9-1.8-1.8-4.8,0.2-8
			C-160.4,549.4-157.8,546.5-157.8,546.5z M-139.9,563.4c-5.8,8.4-17.9,14-17.9,14c-13.4-6.3-22.6-17.2-22.6-24.8
			c0-7.6,7.1-11.6,11.9-11.6c4.7,0,7.2,2.1,7.2,2.1s-7.6,8-7.6,13.7c0,5.7,5.2,10.4,11.2,10.4s11-5.3,11-10.6
			c0-5.3-7.6-13.4-7.6-13.4c1.1-0.7,2.9-2.1,7.1-2.1c8.8,0,11.8,7.5,11.8,11.3C-135.4,556.2-137,559.3-139.9,563.4z"/>
	</g>
</g>
<g id="Layer_1">
</g>
</svg>
