<?xml version="1.0" encoding="utf-8"?>
<!-- Generator: Adobe Illustrator 19.0.0, SVG Export Plug-In . SVG Version: 6.00 Build 0)  -->
<svg version="1.1" xmlns="http://www.w3.org/2000/svg" xmlns:xlink="http://www.w3.org/1999/xlink" x="0px" y="0px"
	 viewBox="0 0 800 800" style="enable-background:new 0 0 800 800;" xml:space="preserve">
<style type="text/css">
	.st0{fill:#6DAAE2;}
	.st1{opacity:0.2;fill:#212121;}
	.st2{fill:#FAFAFA;}
	.st3{fill:#FF3F62;}
	.st4{fill:#BDBDBD;}
	.st5{fill:#E0E0E0;}
	.st6{fill:#E0F7FA;}
	.st7{fill:#F5F5F5;}
	.st8{fill:none;}
</style>
<g id="_x33_">
	<g>
		<polygon class="st0" points="573.7,206.5 562.3,206.5 562.3,195.2 549.6,195.2 549.6,206.5 538.3,206.5 538.3,219.2 549.6,219.2 
			549.6,230.6 562.3,230.6 562.3,219.2 573.7,219.2 		"/>
		<polygon class="st0" points="654.9,489.4 646.2,489.4 646.2,480.6 636.4,480.6 636.4,489.4 627.6,489.4 627.6,499.2 636.4,499.2 
			636.4,508 646.2,508 646.2,499.2 654.9,499.2 		"/>
		<polygon class="st0" points="236.7,190.3 227.9,190.3 227.9,181.5 218.1,181.5 218.1,190.3 209.4,190.3 209.4,200.1 218.1,200.1 
			218.1,208.9 227.9,208.9 227.9,200.1 236.7,200.1 		"/>
		<polygon class="st1" points="486.9,179.8 299.1,138.3 226.1,468.6 472.8,523.1 532.8,251.8 		"/>
		<g>
			<polygon class="st2" points="284.9,124.1 211.9,454.4 458.7,508.9 518.7,237.6 472.7,165.6 			"/>
			<path class="st3" d="M394.6,213.5c-20.4-4.5-40.5,8.4-45,28.7c-4.5,20.4,8.4,40.5,28.7,45s40.5-8.4,45-28.7
				C427.8,238.2,415,218,394.6,213.5z M402.5,260.5l-11.2-2.5l-2.5,11.2l-12.6-2.8l2.5-11.2l-11.2-2.5l2.8-12.6l11.2,2.5l2.5-11.2
				l12.6,2.8l-2.5,11.2l11.2,2.5L402.5,260.5z"/>
			<g>
				
					<rect x="275.1" y="298.5" transform="matrix(0.9764 0.2159 -0.2159 0.9764 72.9008 -58.5127)" class="st4" width="58.3" height="11.9"/>
				
					<rect x="342" y="313.3" transform="matrix(0.9764 0.2159 -0.2159 0.9764 77.672 -72.6051)" class="st4" width="58.3" height="11.9"/>
				
					<rect x="408.9" y="328.1" transform="matrix(0.9764 0.2159 -0.2159 0.9764 82.4418 -86.6966)" class="st4" width="58.3" height="11.9"/>
				
					<rect x="270" y="323.3" transform="matrix(0.9764 0.2159 -0.2159 0.9764 78.4637 -59.9743)" class="st4" width="87.5" height="11.9"/>
				
					<rect x="366" y="339.1" transform="matrix(0.9764 0.2159 -0.2159 0.9764 83.5864 -75.1103)" class="st4" width="39.3" height="11.9"/>
				
					<rect x="414.2" y="350.8" transform="matrix(0.9764 0.2159 -0.2159 0.9764 87.3403 -86.2011)" class="st4" width="48.2" height="11.9"/>
				
					<rect x="265.9" y="339" transform="matrix(0.9764 0.2159 -0.2159 0.9764 81.1323 -52.8892)" class="st4" width="33.6" height="11.9"/>
				
					<rect x="308.1" y="353.2" transform="matrix(0.9764 0.2159 -0.2159 0.9764 85.6972 -66.3736)" class="st4" width="77.2" height="11.9"/>
				
					<rect x="399.4" y="371.3" transform="matrix(0.9764 0.2159 -0.2159 0.9764 91.5339 -83.6175)" class="st4" width="58.3" height="11.9"/>
			</g>
			<g>
				
					<rect x="380.7" y="455.9" transform="matrix(-0.9764 -0.2159 0.2159 -0.9764 710.3407 1001.1774)" class="st4" width="58.3" height="11.9"/>
				
					<rect x="313.8" y="441.1" transform="matrix(-0.9764 -0.2159 0.2159 -0.9764 581.3276 957.5084)" class="st4" width="58.3" height="11.9"/>
				
					<rect x="246.9" y="426.3" transform="matrix(-0.9764 -0.2159 0.2159 -0.9764 452.3158 913.8391)" class="st4" width="58.3" height="11.9"/>
				
					<rect x="356.6" y="431.1" transform="matrix(-0.9764 -0.2159 0.2159 -0.9764 696.9635 950.2514)" class="st4" width="87.5" height="11.9"/>
				
					<rect x="308.9" y="415.2" transform="matrix(-0.9764 -0.2159 0.2159 -0.9764 558.3817 903.3432)" class="st4" width="39.3" height="11.9"/>
				
					<rect x="251.8" y="403.6" transform="matrix(-0.9764 -0.2159 0.2159 -0.9764 456.8358 868.9726)" class="st4" width="48.2" height="11.9"/>
				
					<rect x="414.7" y="415.4" transform="matrix(-0.9764 -0.2159 0.2159 -0.9764 761.8273 925.8083)" class="st4" width="33.6" height="11.9"/>
				
					<rect x="328.9" y="401.2" transform="matrix(-0.9764 -0.2159 0.2159 -0.9764 638.373 884.0219)" class="st4" width="77.2" height="11.9"/>
				
					<rect x="256.4" y="383.1" transform="matrix(-0.9764 -0.2159 0.2159 -0.9764 480.4953 830.5838)" class="st4" width="58.3" height="11.9"/>
			</g>
			<polygon class="st5" points="518.7,237.6 472.7,165.6 459.7,224.6 			"/>
		</g>
		<path class="st1" d="M624.5,433.6l-0.6-0.5c15.1-19,22.6-44,18.7-69.8l-10.9-71.4c-1.2-8-8.7-13.5-16.7-12.3l-17.7,2.7l-0.5-3.1
			c-0.3-2.1-2.3-3.5-4.3-3.2l-16.8,2.6c-3,0.5-5.1,3.3-4.6,6.3l1.2,8.1c0.5,3,3.3,5.1,6.3,4.6l16.8-2.6c2.1-0.3,3.5-2.3,3.2-4.3
			l-0.5-3.1l17.7-2.7c5-0.8,9.7,2.7,10.5,7.7l10.9,71.4c3.7,24.3-3.4,47.9-17.7,65.7l-0.7-0.5c-1.6-1.2-3.8-0.9-5.1,0.6
			c-23.9,28.7-70,35.7-102.2,15.5c-1.7-1.1-3.9-0.6-5,1l-0.5,0.7c-19-12.8-32.7-33.1-36.5-57.5l-10.9-71.4c-0.8-5,2.7-9.7,7.7-10.5
			l17.4-2.7l0.5,3.1c0.3,2.1,2.3,3.5,4.3,3.2l16.8-2.6c3-0.5,5.1-3.3,4.6-6.3l-1.2-8.1c-0.5-3-3.3-5.1-6.3-4.6l-16.8,2.6
			c-2.1,0.3-3.5,2.3-3.2,4.3l0.5,3.1l-17.4,2.7c-8,1.2-13.5,8.7-12.3,16.7l10.9,71.4c3.9,25.9,18.6,47.5,38.7,61.1l-0.5,0.7
			c-1.2,1.7-0.7,4.1,1,5.2c13.4,8.4,29.3,13.2,45.8,13.8c6.5,0.3,12,5,12.9,11.5l15.1,98.7c1,6.8-3.8,13.2-10.7,13.9
			c-6.5,0.7-12.3-4.1-13.2-10.6l-4-26c-2-13.2-14.5-22.2-27.7-19.8c-12.7,2.3-21,14.7-19.1,27.4l15.7,103c0.6,3.8,4,6.7,7.8,6.4
			c4.2-0.4,7.2-4.2,6.6-8.3l-15.8-103.7c-0.8-5.3,3.1-10.3,8.6-10.6c4.8-0.3,8.9,3.3,9.6,8.1l4,26.1c2.3,14.8,16.3,24.9,31.1,22.2
			c14.3-2.6,23.6-16.4,21.4-30.8l-15-98c-1-6.5,2.8-12.7,9-14.8c15.7-5.5,29.5-14.8,39.6-27C626.5,437.3,626.2,434.9,624.5,433.6z"
			/>
		<path class="st1" d="M349.9,446.5l-32-206.7c-1-6.2-6.7-10.4-12.9-9.5l-167.6,25.9c-6.2,1-10.4,6.7-9.5,12.9l32,206.7
			c1,6.2,6.7,10.4,12.9,9.5l62.5-9.7l1.5,9.7c1,6.5,7.1,11,13.7,10l3.2,20.5c0.6,3.7,4.1,6.3,7.8,5.7l3.5-0.5l-3.8,0.6L271,585
			c1.4,8.8,9.6,14.9,18.4,13.5c8.8-1.4,14.9-9.6,13.5-18.4l-4.2-27.3c-0.6-3.9,2.1-7.5,5.9-8.1c3.9-0.6,7.5,2.1,8.1,5.9l13.6,88
			l6-0.9l-13.6-88c-1.1-7.2-7.9-12.2-15.1-11c-7.2,1.1-12.2,7.9-11,15.1l4.2,27.3c0.8,5.5-2.9,10.6-8.4,11.5s-10.6-2.9-11.5-8.4
			l-9.8-63.3l-0.3,0c3.7-0.6,6.3-4.1,5.7-7.8l-3.2-20.5c6.5-1,11-7.1,10-13.7l-1.5-9.7l62.5-9.7
			C346.6,458.5,350.9,452.7,349.9,446.5z"/>
		<g>
			<path class="st6" d="M290.9,216.2l-167.6,25.9c-6.2,1-10.4,6.7-9.5,12.9l32,206.7c1,6.2,6.7,10.4,12.9,9.5l62.5-9.7l1.5,9.7
				c1,6.5,7.1,11,13.7,10l19.1-3c6.5-1,11-7.1,10-13.7l-1.5-9.7l62.5-9.7c6.2-1,10.4-6.7,9.5-12.9l-32-206.7
				C302.8,219.5,297.1,215.3,290.9,216.2z"/>
			<path class="st3" d="M312.3,432.2l-144.2,22.3c-4,0.6-7.8-2.1-8.4-6.2l-28.6-184.7c-0.6-4,2.1-7.8,6.2-8.4l144.2-22.3
				c4-0.6,7.8,2.1,8.4,6.2l28.6,184.7C319.1,427.8,316.3,431.6,312.3,432.2z"/>
			
				<rect x="230.5" y="431.4" transform="matrix(0.9882 -0.1529 0.1529 0.9882 -66.1358 42.2159)" class="st3" width="21.8" height="39.3"/>
			<polygon class="st2" points="254.6,302 231.9,305.5 228.4,282.8 202.9,286.7 206.4,309.4 183.7,312.9 187.7,338.4 210.4,334.9 
				213.9,357.6 239.3,353.6 235.8,330.9 258.5,327.4 			"/>
			<path class="st0" d="M256,506.1l-11.9,1.8c-2,0.3-3.8-1.1-4.2-3l-3.7-23.6l19.1-3l3.7,23.6C259.3,503.9,258,505.8,256,506.1z"/>
			<g>
				<path class="st2" d="M318.2,623.5l-6,0.9l-13.6-88c-0.6-3.9-4.2-6.5-8.1-5.9c-3.9,0.6-6.5,4.2-5.9,8.1l4.2,27.3
					c1.4,8.8-4.7,17.1-13.5,18.4c-8.8,1.4-17.1-4.7-18.4-13.5l-9.8-63.3l6-0.9l9.8,63.3c0.8,5.5,6,9.2,11.5,8.4
					c5.5-0.8,9.2-6,8.4-11.5l-4.2-27.3c-1.1-7.2,3.8-14,11-15.1c7.2-1.1,14,3.8,15.1,11L318.2,623.5z"/>
			</g>
		</g>
		<g>
			<g>
				<path class="st7" d="M552.8,451.9c-49.2,7.5-95.3-26.4-102.8-75.6l-10.9-71.4c-1.2-8,4.3-15.4,12.3-16.7l30.4-4.6l0.8,5.4
					l-30.4,4.6c-5,0.8-8.5,5.5-7.7,10.5l10.9,71.4c7.1,46.2,50.4,78,96.6,71c46.2-7.1,78-50.4,71-96.6l-10.9-71.4
					c-0.8-5-5.5-8.5-10.5-7.7l-30.4,4.6l-0.8-5.4l30.4-4.6c8-1.2,15.4,4.3,16.7,12.3l10.9,71.4C635.9,398.3,602,444.4,552.8,451.9z"
					/>
			</g>
			<g>
				<g>
					<path class="st0" d="M488.3,275.6l-16.8,2.6c-2.1,0.3-3.5,2.3-3.2,4.3l1.8,11.5c0.3,2.1,2.3,3.5,4.3,3.2l16.8-2.6
						c3-0.5,5.1-3.3,4.6-6.3l-1.2-8.1C494.1,277.3,491.3,275.2,488.3,275.6z"/>
				</g>
				<g>
					<path class="st0" d="M578.4,261.9l-16.8,2.6c-3,0.5-5.1,3.3-4.6,6.3l1.2,8.1c0.5,3,3.3,5.1,6.3,4.6l16.8-2.6
						c2.1-0.3,3.5-2.3,3.2-4.3l-1.8-11.5C582.4,263,580.4,261.6,578.4,261.9z"/>
				</g>
			</g>
			<path class="st0" d="M610.3,419.5l-5.7-4.3c-1.6-1.2-3.8-0.9-5.1,0.6c-23.9,28.7-70,35.7-102.2,15.5c-1.7-1.1-3.9-0.6-5,1
				l-4.1,5.8c-1.2,1.7-0.7,4.1,1,5.2c13.4,8.4,29.3,13.2,45.8,13.8c6.5,0.3,12,5,12.9,11.5l15.1,98.7c1,6.8-3.8,13.2-10.7,13.9
				c-6.5,0.7-12.3-4.1-13.2-10.6l-4-26c-2-13.2-14.5-22.2-27.7-19.8c-12.7,2.3-21,14.7-19.1,27.4l15.7,103c0.6,3.8,4,6.7,7.8,6.4
				c4.2-0.4,7.2-4.2,6.6-8.3l-15.8-103.7c-0.8-5.3,3.1-10.3,8.6-10.6c4.8-0.3,8.9,3.3,9.6,8.1l4,26.1c2.3,14.8,16.3,24.9,31.1,22.2
				c14.3-2.6,23.6-16.4,21.4-30.8l-15-98c-1-6.5,2.8-12.7,9-14.8c15.7-5.5,29.5-14.8,39.6-27C612.3,423.1,612,420.7,610.3,419.5z"/>
		</g>
		<circle class="st0" cx="649.3" cy="264.1" r="7.9"/>
		<circle class="st0" cx="354.9" cy="525.5" r="7.9"/>
		<circle class="st0" cx="420.2" cy="558.5" r="7.9"/>
		<circle class="st0" cx="202.7" cy="525.5" r="7.9"/>
		<g>
			<rect x="177" y="166.4" class="st8" width="509.3" height="418.5"/>
		</g>
	</g>
</g>
<g id="Layer_1">
</g>
</svg>
