<?xml version="1.0" encoding="utf-8"?>
<!-- Generator: Adobe Illustrator 19.0.0, SVG Export Plug-In . SVG Version: 6.00 Build 0)  -->
<svg version="1.1" id="Calque_1" xmlns="http://www.w3.org/2000/svg" xmlns:xlink="http://www.w3.org/1999/xlink" x="0px" y="0px"
	 viewBox="0 0 250 250" style="enable-background:new 0 0 250 250;" xml:space="preserve">
<style type="text/css">
	.st0{opacity:0.1;enable-background:new    ;}
	.st1{fill:#E94364;stroke:#5F5C74;stroke-width:8;stroke-linecap:round;stroke-linejoin:round;stroke-miterlimit:10;}
	.st2{fill:none;stroke:#FFFFFF;stroke-width:8;stroke-linecap:round;stroke-linejoin:round;stroke-miterlimit:10;}
	.st3{fill:#FFFFFF;}
</style>
<ellipse class="st0" cx="125" cy="227.8" rx="112.5" ry="19.3"/>
<path class="st1" d="M206,148.9c0,45.9-37.2,78.9-83,78.9s-83-33-83-78.9C40,72.1,123,7.8,123,7.8S206,72.1,206,148.9z"/>
<g id="XMLID_4_">
	<path id="XMLID_8_" class="st1" d="M234.2,77c0,20.5-16.6,35.3-37.2,35.3c-20.5,0-37.2-14.8-37.2-35.3c0-34.4,37.2-63.2,37.2-63.2
		S234.2,42.6,234.2,77z"/>
	<g id="XMLID_5_">
		<line id="XMLID_2_" class="st2" x1="185.4" y1="73.2" x2="208.7" y2="73.2"/>
		<path id="XMLID_9_" class="st2" d="M197,84.8"/>
		<path id="XMLID_3_" class="st2" d="M197,61.6"/>
	</g>
</g>
<g id="XMLID_6_">
	<path id="XMLID_7_" class="st3" d="M127,108.2c4.5,0,8.3,0.9,11.5,2.7c3.2,1.8,5.6,4.4,7.3,7.7c1.6,3.3,2.5,7.2,2.5,11.7
		c0,3.3-0.4,6.3-1.3,9.1s-2.2,5.1-4,7.1s-4,3.5-6.6,4.6s-5.6,1.6-9,1.6c-3.4,0-6.4-0.5-9-1.6c-2.7-1.1-4.9-2.6-6.7-4.6
		c-1.8-2-3.1-4.3-4-7.1s-1.4-5.8-1.4-9c0-3.3,0.5-6.3,1.4-9.1c0.9-2.8,2.3-5.1,4.1-7c1.8-1.9,4-3.4,6.6-4.4S123.7,108.2,127,108.2z
		 M139.4,130.2c0-3.1-0.5-5.9-1.5-8.2c-1-2.3-2.5-4-4.4-5.2s-4-1.8-6.5-1.8c-1.7,0-3.3,0.3-4.8,1s-2.7,1.6-3.8,2.9
		c-1.1,1.3-1.9,2.8-2.5,4.8c-0.6,1.9-0.9,4.1-0.9,6.5c0,2.4,0.3,4.6,0.9,6.6s1.5,3.6,2.6,4.9c1.1,1.3,2.4,2.3,3.9,2.9
		c1.5,0.6,3.1,1,4.8,1c2.2,0,4.3-0.6,6.1-1.7s3.3-2.8,4.5-5.2S139.4,133.6,139.4,130.2z"/>
</g>
</svg>
