<?xml version="1.0" encoding="utf-8"?>
<!-- Generator: Adobe Illustrator 19.0.0, SVG Export Plug-In . SVG Version: 6.00 Build 0)  -->
<svg version="1.1" id="Calque_1" xmlns="http://www.w3.org/2000/svg" xmlns:xlink="http://www.w3.org/1999/xlink" x="0px" y="0px"
	 viewBox="-709 291 500 500" style="enable-background:new -709 291 500 500;" xml:space="preserve">
<style type="text/css">
	.st0{clip-path:url(#SVGID_2_);}
	.st1{opacity:0.2;fill:#282F35;enable-background:new    ;}
	.st2{fill:#F1F2F2;}
	.st3{fill:#FF3F62;}
	.st4{fill:#FC1A4A;}
	.st5{clip-path:url(#SVGID_4_);}
	.st6{fill:#FBC399;}
	.st7{fill:#EA9975;}
	.st8{fill:#8ABCF9;}
	.st9{fill:#5AA6F2;}
	.st10{fill:#414042;}
	.st11{fill:none;stroke:#231F20;stroke-width:0.8231;stroke-miterlimit:10;}
	.st12{fill:#231F20;}
	.st13{fill:none;stroke:#8ABCF9;stroke-width:3.2922;stroke-linecap:round;stroke-linejoin:round;stroke-miterlimit:10;}
	.st14{fill:#C61469;}
	.st15{fill:#7A131D;}
	.st16{fill:none;stroke:#231F20;stroke-width:0.5297;stroke-miterlimit:10;}
	.st17{fill:none;stroke:#FF3F62;stroke-width:2.1188;stroke-linecap:round;stroke-linejoin:round;stroke-miterlimit:10;}
	.st18{clip-path:url(#SVGID_6_);}
	.st19{fill:none;stroke:#FF3F62;stroke-width:5.6607;stroke-linecap:round;stroke-linejoin:round;stroke-miterlimit:10;}
	.st20{fill:#D1D3D4;}
	.st21{clip-path:url(#SVGID_8_);}
	
		.st22{display:none;fill:none;stroke:#BE1E2D;stroke-width:6.0614;stroke-linecap:round;stroke-linejoin:round;stroke-miterlimit:10;}
</style>
<g id="BACKGROUND">
</g>
<g id="OBJECTS">
	<g>
		<g>
			<defs>
				<rect id="SVGID_1_" x="-673" y="327" width="428" height="428"/>
			</defs>
			<clipPath id="SVGID_2_">
				<use xlink:href="#SVGID_1_"  style="overflow:visible;"/>
			</clipPath>
			<g class="st0">
				<path class="st1" d="M-334.5,600v-9.7c0-2.8-2.3-5.1-5.1-5.1h-4.8c-2.8,0-5.1,2.3-5.1,5.1v9.9c-25.7,3.7-28.1,22.5-28.1,22.5
					s-2.6-19.9-30.3-22.9v-9.7c0-2.8-2.3-5.1-5.1-5.1h-4.8c-2.8,0-5.1,2.3-5.1,5.1v10.1c-28.1,5.4-36.5,39.3-15.8,69.7
					c22.6,33.1,47.3,50,61.1,50c13.9,0,38.5-16.9,61.1-50C-295.2,638.9-304.6,604-334.5,600z"/>
				<path class="st2" d="M-344.1,596.6c-34.3,0-37.3,23.2-37.3,23.2s-3.1-23.2-37.4-23.2s-46.4,37.3-23.8,70.4
					c22.6,33.1,47.3,50,61.1,50c13.9,0,38.5-16.9,61.1-50C-297.7,634-309.8,596.6-344.1,596.6z"/>
				<path class="st2" d="M-416.9,621.3h-4.8c-2.8,0-5.1-2.3-5.1-5.1v-28.9c0-2.8,2.3-5.1,5.1-5.1h4.8c2.8,0,5.1,2.3,5.1,5.1v28.9
					C-411.8,619-414.1,621.3-416.9,621.3z"/>
				<path class="st2" d="M-343.4,621.3h-4.8c-2.8,0-5.1-2.3-5.1-5.1v-28.9c0-2.8,2.3-5.1,5.1-5.1h4.8c2.8,0,5.1,2.3,5.1,5.1v28.9
					C-338.3,619-340.6,621.3-343.4,621.3z"/>
				<path class="st3" d="M-323.8,619.7c-3.8-7.2-8.9-12-23.1-12c-14.1,0-22.3,7.1-24.7,11.6c-2.4,4.5-6.7,9.3-9.8,9.3
					c-3.3,0-7.4-4.9-9.8-9.3c-2.4-4.5-10.5-11.6-24.7-11.6s-19.3,4.9-23.1,12c-5.6,10.7-3.1,26.6,6.4,40.7
					c23,33.8,44.4,44.8,51.2,44.8c6.8,0,28.2-11,51.2-44.8C-320.8,646.3-318.2,630.4-323.8,619.7z"/>
				<ellipse class="st3" cx="-419.4" cy="607.6" rx="4.9" ry="18.2"/>
				<ellipse class="st3" cx="-345.8" cy="607.6" rx="4.9" ry="18.2"/>
				<g>
					<path class="st4" d="M-380,697.5c-0.6-0.1-1.3-0.2-1.9-0.4c-1.1-0.4-12.2-3.6-33.4-24c-21.5-24.1-20.1-44.9-20-45.8
						c0.2-2.7,2.3-4.5,4.5-4.2c2.1,0.3,3.7,2.7,3.6,5.4c0,0.8,0.4,17.3,20.1,36.6c18.1,20.8,28.1,24.7,28.2,24.7
						c2.4,1.1,3.7,3.7,2.9,5.6C-376.7,696.9-378.2,697.6-380,697.5z"/>
				</g>
			</g>
		</g>
		<g>
			<defs>
				<rect id="SVGID_3_" x="-673" y="327" width="428" height="428"/>
			</defs>
			<clipPath id="SVGID_4_">
				<use xlink:href="#SVGID_3_"  style="overflow:visible;"/>
			</clipPath>
			<g class="st5">
				<path class="st1" d="M-509.9,518.2c0-0.4,0.1-0.8,0.1-1.2c0-0.2,0-0.4,0-0.6c0-0.3,0-0.6-0.1-0.9c-0.1-0.6-0.2-1.2-0.3-1.8
					c-0.1-0.3-0.3-0.7-0.3-1c-0.1-0.2-0.1-0.3-0.2-0.3c-0.1-0.2-0.2-0.3-0.3-0.5c-1-2.1-2.8-3.8-5.1-4.5l0,0
					c-4.8-1.8-9.8,0.9-11.2,5.4c-1.5,5.3-5.3,16.9-8.6,28.5l6.2-44.1c0-0.2,0-0.3,0.1-0.5c0-0.1,0-0.1,0-0.2c0-0.1,0-0.3,0-0.3
					s0-0.2,0-0.2c0-0.1,0-0.2,0-0.3s0-0.2,0-0.2c0-0.1,0-0.2,0-0.3s0-0.2,0-0.3s0-0.2,0-0.3s0-0.2,0-0.3s0-0.2,0-0.3s0-0.2,0-0.3
					s0-0.2-0.1-0.3c0-0.1,0-0.2-0.1-0.3c0-0.1,0-0.2-0.1-0.3c0-0.1,0-0.2-0.1-0.3c0-0.1,0-0.2-0.1-0.2c0-0.1-0.1-0.2-0.1-0.3
					s0-0.1-0.1-0.2c0-0.1-0.1-0.2-0.1-0.3s0-0.1-0.1-0.2c0-0.1-0.1-0.2-0.1-0.3c0,0,0-0.1-0.1-0.1c-0.5-1-1.1-2.1-2-2.8l0,0
					c-1.5-1.5-3.5-2.6-5.7-2.9c-5.5-0.8-10.4,3-11.2,8.5l-6.3,45.5l0.1-55.6c0-5.8-4.7-10.5-10.4-10.5c-5.8,0-10.5,4.7-10.5,10.4
					l-0.1,59.1c-0.2,0.1-0.4,0.2-0.6,0.2l-2.3-47.5c0-0.2,0-0.3,0-0.5c0-0.1,0-0.1,0-0.2s0-0.3-0.1-0.3c0-0.1,0-0.2,0-0.2
					c0-0.1,0-0.2-0.1-0.3c0-0.1,0-0.2-0.1-0.3c0-0.1,0-0.2-0.1-0.3c0-0.1,0-0.2-0.1-0.3c0-0.1-0.1-0.2-0.1-0.3s-0.1-0.2-0.1-0.3
					c0-0.1-0.1-0.2-0.1-0.3c0-0.1-0.1-0.2-0.1-0.3s-0.1-0.2-0.1-0.3s-0.1-0.2-0.1-0.3c0,0,0-0.1-0.1-0.1c-0.2-0.4-0.3-0.8-0.6-1.1
					c0,0,0,0,0-0.1c-0.1-0.1-0.2-0.3-0.3-0.3c0,0,0,0,0-0.1c-0.1-0.1-0.2-0.3-0.3-0.3l0,0c-0.1-0.1-0.2-0.3-0.3-0.3l0,0
					c-2.1-2.7-5.5-4.5-9.2-4.3h-0.1c-6.1,0.3-10.7,5.5-10.4,11.6l3.1,63.3c-3.4,5.6-5.3,12.1-5.1,18.9v0.5
					c-5.9-6-12.2-13.7-17.1-23.3c-0.1-0.2-0.2-0.3-0.3-0.5c0-0.1-0.1-0.1-0.1-0.2c-0.1-0.1-0.1-0.2-0.2-0.3c0-0.1-0.1-0.1-0.1-0.2
					c-0.1-0.1-0.1-0.2-0.2-0.3c-0.1-0.1-0.1-0.1-0.2-0.2c-0.1-0.1-0.1-0.2-0.2-0.3c-0.1-0.1-0.1-0.1-0.2-0.2
					c-0.1-0.1-0.2-0.2-0.2-0.3c-0.1-0.1-0.1-0.1-0.2-0.2c-0.1-0.1-0.2-0.2-0.2-0.3c-0.1-0.1-0.1-0.1-0.2-0.2
					c-0.1-0.1-0.2-0.2-0.3-0.2c-0.1-0.1-0.1-0.1-0.2-0.2c-0.1-0.1-0.3-0.3-0.3-0.3c-0.1-0.1-0.2-0.1-0.3-0.2
					c-0.1-0.1-0.1-0.1-0.2-0.2c-0.1-0.1-0.2-0.1-0.3-0.2c-0.1,0-0.1-0.1-0.2-0.1c-0.1-0.1-0.2-0.1-0.3-0.2c-0.1,0-0.1-0.1-0.2-0.1
					c-0.1-0.1-0.2-0.1-0.3-0.2c-0.1,0-0.1-0.1-0.2-0.1c-0.1-0.1-0.2-0.1-0.3-0.2c0,0-0.1,0-0.1-0.1c-0.1-0.1-0.3-0.1-0.3-0.2l0,0
					c-3-1.4-6.7-1.5-9.8,0.3c-5.5,2.8-7.5,9.6-4.7,15c9.8,18.8,23.2,31.7,33.4,39.5l0,0l0,0c3.1,2.4,5.8,4.3,8.1,5.7
					c9.6,7.4,16.6,15.8,16.6,27.7l0,0c-0.4,17.1-0.8,38.9-0.6,63.3c0,2.1,0,4.2,0,6.2h-0.4c-3.1,0-5.6,2.5-5.6,5.6v19.1
					c0,0.9,0.2,1.7,0.6,2.4l0,0l0,0c0.3,0.4,0.5,0.9,0.9,1.3l0,0c0.3,0.3,0.5,0.5,0.8,0.7c0.1,0,0.1,0.1,0.2,0.1
					c0.1,0.1,0.2,0.1,0.3,0.2c0.1,0.1,0.2,0.1,0.2,0.1c0.1,0.1,0.2,0.1,0.3,0.2c0.1,0.1,0.2,0.1,0.3,0.2c0.1,0,0.1,0.1,0.2,0.1
					c0.1,0,0.2,0.1,0.3,0.1c0.1,0,0.1,0,0.2,0.1c0.2,0.1,0.3,0.1,0.4,0.1h0.1c0.1,0,0.3,0,0.3,0.1c0.1,0,0.1,0,0.2,0
					c0.2,0,0.3,0,0.5,0h0.9c0.2,5.6,0.3,11.2,0.5,16.7c0,0.1,0,0.2,0,0.3c0,0.9,0.1,1.7,0.1,2.6c0,0.2,0,0.3,0,0.4
					c0,0.9,0.1,1.6,0.1,2.5c0,0.1,0,0.3,0,0.3c0,0.9,0.1,1.7,0.1,2.5c0,0.1,0,0.2,0,0.3c0.3,5.5,0.5,10.8,0.8,16c0,0.1,0,0.3,0,0.3
					c0,0.8,0.1,1.5,0.1,2.2c0,0.2,0,0.3,0,0.5c0,0.7,0.1,1.5,0.1,2.1c0,0.2,0,0.4,0,0.6c0,0.7,0.1,1.5,0.1,2.1c0,0.2,0,0.4,0,0.6
					c0.1,0.7,0.1,1.5,0.2,2.1c0,0.2,0,0.3,0,0.5c0.1,0.8,0.1,1.5,0.2,2.2l0,0c0.3,3.3,0.4,6.6,0.7,9.8c0,0.2,0,0.3,0,0.5
					c0.1,0.6,0.1,1.3,0.2,1.9c0,0.3,0,0.5,0.1,0.8c0.1,0.6,0.1,1.2,0.2,1.8c0,0.3,0.1,0.5,0.1,0.9c0.1,0.6,0.1,1.1,0.2,1.7
					c0,0.3,0.1,0.6,0.1,0.9c0.1,0.6,0.1,1.1,0.2,1.7c0,0.3,0.1,0.6,0.1,0.9c0.1,0.6,0.1,1.1,0.2,1.7c0,0.3,0.1,0.5,0.1,0.8
					c0.1,0.6,0.1,1.2,0.2,1.8c0,0.1,0,0.3,0,0.3c0.2,2.1,0.3,4.1,0.6,6.1c0,0.3,0.1,0.5,0.1,0.8c0.1,0.5,0.1,1,0.2,1.5
					c0,0.3,0.1,0.6,0.1,0.9c0.1,0.5,0.1,0.9,0.2,1.5c0,0.3,0.1,0.7,0.1,1c0.1,0.4,0.1,0.9,0.2,1.4c0,0.3,0.1,0.7,0.1,1
					c0.1,0.4,0.1,0.9,0.2,1.4c0,0.3,0.1,0.7,0.1,1c0.1,0.4,0.1,0.9,0.2,1.3c0,0.3,0.1,0.7,0.1,1c0.1,0.4,0.1,0.9,0.2,1.3
					c0,0.3,0.1,0.7,0.1,1c0.1,0.4,0.1,0.9,0.2,1.3c0.1,0.3,0.1,0.8,0.2,1.1c0.1,0.7,0.2,1.5,0.3,2.1c0.1,0.4,0.1,0.9,0.2,1.2
					c0.1,0.3,0.1,0.8,0.2,1.1c0.1,0.4,0.1,0.8,0.2,1.2c0.1,0.3,0.1,0.8,0.2,1.1c0.1,0.4,0.1,0.8,0.2,1.2c0.1,0.3,0.1,0.7,0.2,1.1
					c0.1,0.4,0.1,0.8,0.2,1.1s0.1,0.7,0.2,1c0.1,0.4,0.1,0.8,0.2,1.2c0.1,0.3,0.1,0.7,0.2,1c0.1,0.4,0.1,0.8,0.2,1.2
					c0.1,0.3,0.1,0.7,0.2,1c0.1,0.4,0.1,0.9,0.2,1.2c0.1,0.3,0.1,0.6,0.2,0.9c0.1,0.5,0.2,0.9,0.3,1.5c0,0.3,0.1,0.4,0.1,0.7
					c0.1,0.7,0.3,1.4,0.3,2.1c0,0.3,0.1,0.4,0.1,0.7c0.1,0.5,0.2,0.9,0.3,1.5c0.1,0.3,0.1,0.5,0.2,0.9c0.1,0.4,0.2,0.9,0.2,1.3
					c0.1,0.3,0.1,0.6,0.2,0.9c0.1,0.4,0.2,0.8,0.2,1.2c0.1,0.3,0.1,0.6,0.2,0.9c0.1,0.4,0.2,0.8,0.2,1.2c0.1,0.3,0.1,0.6,0.2,0.9
					c0.1,0.4,0.2,0.8,0.2,1.2c0.1,0.3,0.1,0.6,0.2,0.9c0.1,0.4,0.2,0.8,0.3,1.2c0.1,0.3,0.1,0.5,0.2,0.8c0.1,0.4,0.2,0.9,0.3,1.3
					c0,0.3,0.1,0.4,0.1,0.7c0.1,0.6,0.3,1.3,0.3,1.9l0,0c2.1,10.2,10.4,17.5,20.2,18.7l0,0c0.3,0,0.5,0.1,0.8,0.1c0.2,0,0.3,0,0.4,0
					s0.3,0,0.5,0c0.1,0,0.3,0,0.3,0c0.3,0,0.6,0,0.9,0l0,0c1.5,0,3.1-0.2,4.6-0.4c11.2-2.2,18.9-12.1,18.9-23c0-1.5-0.2-3.2-0.4-4.8
					c-0.2-0.7-0.3-1.4-0.4-2.1c0-0.2-0.1-0.3-0.1-0.5c0-0.1,0-0.2-0.1-0.3c-0.1-0.5-0.2-0.9-0.3-1.5c0-0.2-0.1-0.3-0.1-0.5
					c0-0.2-0.1-0.3-0.1-0.4c-0.1-0.4-0.2-0.9-0.3-1.3c0-0.2-0.1-0.3-0.1-0.4s-0.1-0.3-0.1-0.5c-0.1-0.4-0.2-0.9-0.3-1.3
					c0-0.1,0-0.2-0.1-0.3c0-0.3-0.1-0.4-0.1-0.7c-0.1-0.4-0.2-0.9-0.3-1.3v-0.1c-0.1-0.3-0.1-0.6-0.2-0.9c-0.1-0.4-0.2-0.9-0.3-1.4
					c-0.1-0.3-0.1-0.6-0.2-0.9c-0.1-0.5-0.2-1-0.3-1.5c0-0.3-0.1-0.5-0.1-0.8l0,0c-0.1-0.7-0.3-1.5-0.3-2.1c0-0.3-0.1-0.5-0.1-0.8
					c-0.1-0.5-0.2-1-0.3-1.5c0-0.3-0.1-0.5-0.1-0.9c0-0.1,0-0.1,0-0.2c-0.1-0.4-0.2-0.9-0.2-1.4c0-0.3-0.1-0.4-0.1-0.7
					c0-0.2,0-0.3-0.1-0.4c-0.1-0.4-0.1-0.9-0.2-1.3c0-0.2-0.1-0.3-0.1-0.5c0-0.2-0.1-0.4-0.1-0.6c-0.1-0.4-0.1-0.9-0.2-1.3
					c0-0.1,0-0.2,0-0.3c0-0.3-0.1-0.5-0.1-0.9c-0.1-0.4-0.1-0.9-0.2-1.4c-0.1-0.3-0.1-0.7-0.2-1c-0.1-0.5-0.1-0.9-0.2-1.5
					c0-0.3-0.1-0.6-0.1-0.9l0,0c-0.1-0.5-0.2-1.1-0.2-1.6c0-0.2-0.1-0.4-0.1-0.6c0-0.3-0.1-0.5-0.1-0.7c-0.1-0.5-0.1-1-0.2-1.6
					c0-0.3-0.1-0.7-0.1-0.9c-0.1-0.5-0.1-1-0.2-1.5c0-0.3-0.1-0.6-0.1-0.9c0-0.2,0-0.3-0.1-0.4c-0.1-0.4-0.1-0.9-0.2-1.3
					c0-0.3-0.1-0.4-0.1-0.7c0-0.3-0.1-0.4-0.1-0.7c-0.1-0.4-0.1-0.8-0.2-1.2c0-0.2,0-0.3-0.1-0.4c0-0.3-0.1-0.6-0.1-0.9
					c-0.1-0.4-0.1-0.9-0.2-1.4v-0.1c0-0.3-0.1-0.8-0.1-1.1c-0.1-0.4-0.1-0.9-0.2-1.4c0-0.3-0.1-0.8-0.1-1.1
					c-0.1-0.5-0.1-0.9-0.2-1.5c0-0.3-0.1-0.6-0.1-0.9c0-0.3,0-0.4-0.1-0.7c0-0.3-0.1-0.8-0.1-1.1c0-0.2,0-0.4-0.1-0.6
					c0-0.3-0.1-0.6-0.1-0.9c-0.1-0.5-0.1-1-0.2-1.5c0-0.3-0.1-0.7-0.1-1c0-0.1,0-0.3,0-0.3c0-0.4-0.1-0.9-0.1-1.3
					c0-0.3-0.1-0.5-0.1-0.8s0-0.5-0.1-0.7c0-0.3-0.1-0.7-0.1-1.1c0-0.2,0-0.4-0.1-0.6c0-0.3-0.1-0.7-0.1-0.9c0-0.3-0.1-0.8-0.1-1.1
					c0-0.1,0-0.2,0-0.3c0-0.4-0.1-0.8-0.1-1.2c0-0.4-0.1-0.9-0.1-1.4c0-0.4-0.1-0.9-0.1-1.3c0-0.4-0.1-0.9-0.1-1.3
					c0-0.3-0.1-0.8-0.1-1.1c0-0.2,0-0.3,0-0.5c0-0.3-0.1-0.6-0.1-0.9s-0.1-0.6-0.1-0.9c0-0.3,0-0.5-0.1-0.8c0-0.3,0-0.6-0.1-0.9
					c0-0.3,0-0.5-0.1-0.7c0-0.3-0.1-0.7-0.1-1c0-0.5-0.1-1-0.1-1.5c0-0.3,0-0.6-0.1-0.9c0-0.3,0-0.6-0.1-0.9c0-0.3,0-0.5-0.1-0.9
					c0-0.3,0-0.5-0.1-0.8c0-0.3-0.1-0.8-0.1-1.1c0-0.3,0-0.6-0.1-0.9c0-0.2,0-0.3,0-0.4c0-0.4-0.1-0.9-0.1-1.3
					c0-0.4-0.1-0.8-0.1-1.2c0-0.5-0.1-0.9-0.1-1.5c0-0.4-0.1-0.8-0.1-1.2c0-0.4-0.1-0.9-0.1-1.3c0-0.1,0-0.3,0-0.3
					c0-0.3,0-0.6-0.1-0.9c0-0.4,0-0.8-0.1-1.2c0-0.2,0-0.4,0-0.6c0-0.3,0-0.5,0-0.9s0-0.7-0.1-1.1c0-0.3,0-0.5,0-0.8
					c0-0.2,0-0.4,0-0.6c0-0.3,0-0.8-0.1-1.1c0-0.3,0-0.6,0-0.9c0-0.5-0.1-1.1-0.1-1.6c0-0.3,0-0.5,0-0.9c0-0.5-0.1-0.9-0.1-1.5
					c0-0.2,0-0.3,0-0.4s0-0.4,0-0.6c0-0.5-0.1-1-0.1-1.5c0-0.3,0-0.7,0-1c0-0.5-0.1-1.1-0.1-1.6c0-0.3,0-0.7,0-1c0-0.5,0-1-0.1-1.5
					v-0.1c0-0.3,0-0.6,0-0.9c0-0.5,0-0.9-0.1-1.5c0-0.1,0-0.2,0-0.3c0-0.3,0-0.5,0-0.8c0-0.4,0-0.9-0.1-1.4c0-0.2,0-0.3,0-0.4
					s0-0.4,0-0.6c0-0.5,0-0.9-0.1-1.5c0-0.2,0-0.3,0-0.5c0-0.7-0.1-1.3-0.1-2c0-0.2,0-0.3,0-0.4c0-0.7-0.1-1.4-0.1-2.1
					c0-0.1,0-0.3,0-0.3c0-0.7,0-1.4-0.1-2c0-0.2,0-0.3,0-0.4c0-0.6,0-1.3-0.1-1.9c0-0.3,0-0.4,0-0.7c0-0.6,0-1.2-0.1-1.8
					c0-0.2,0-0.3,0-0.6h3.3c0.2,0,0.3,0,0.6,0c0.3,0,0.8-0.1,1.1-0.3c0.2-0.1,0.3-0.1,0.5-0.2c0.3-0.2,0.7-0.3,0.9-0.5
					c0.2-0.1,0.3-0.2,0.4-0.3c0.9-0.7,1.5-1.6,1.8-2.7c0.2-0.5,0.3-1.1,0.3-1.6v-18.7c0-0.6-0.1-1.1-0.3-1.6c-0.3-1-0.9-2-1.8-2.7
					c-0.2-0.1-0.3-0.3-0.4-0.3c-0.3-0.2-0.6-0.3-0.9-0.5c-0.2-0.1-0.3-0.2-0.5-0.2c-0.3-0.1-0.7-0.2-1.1-0.3c-0.2,0-0.3,0-0.6,0
					h-3.9c-0.1-5.5-0.1-10.9-0.1-16.1c0-29,0.6-54,1.1-70.1c2-6.7,4.7-11.8,6.8-15.7c1.5-2.5,2.7-5.1,3.5-7.9l0,0
					c0.1-0.3,0.2-0.6,0.3-0.9c0,0,0,0,0-0.1c0.1-0.3,0.2-0.5,0.3-0.9v-0.1c0.1-0.3,0.2-0.5,0.2-0.8c0-0.1,0-0.1,0-0.2
					c0.1-0.3,0.1-0.5,0.2-0.8c0-0.1,0-0.2,0-0.2c0.1-0.3,0.1-0.4,0.2-0.7c0-0.1,0-0.2,0-0.3c0-0.3,0.1-0.4,0.1-0.7
					c0-0.1,0-0.2,0-0.3c0-0.2,0.1-0.4,0.1-0.6c0-0.1,0-0.3,0-0.3c0-0.2,0.1-0.4,0.1-0.6s0-0.3,0-0.4s0-0.3,0-0.5s0-0.3,0-0.5
					s0-0.3,0-0.4c0-0.2,0-0.4,0-0.6c0-0.1,0-0.3,0-0.3c0-0.3,0-0.6,0-0.9l0.1-10.9l0,0c0-0.3,0-0.6,0-0.9c0-0.2,0-0.3,0-0.5
					c0-0.1,0-0.3,0-0.3c0-0.3,0-0.4-0.1-0.7l0,0c-0.1-1.3-0.3-2.6-0.5-3.9c0.1-0.5,0.2-1.1,0.2-1.7c0-1.6,0.8-5.3,2-10.2
					c0.1-0.5,0.3-0.9,0.3-1.5c2.1-8.6,5.5-20.1,8.6-30.2c0.1-0.3,0.2-0.5,0.3-0.7c0.1-0.3,0.3-0.7,0.3-1.1c0.3-1.1,0.7-2.2,1-3.3
					c0.1-0.3,0.2-0.7,0.3-1c0.1-0.4,0.3-0.8,0.3-1.1c0.1-0.3,0.2-0.6,0.3-0.9c0.1-0.3,0.2-0.7,0.2-0.9
					C-509.9,518.7-509.9,518.5-509.9,518.2z"/>
				<g>
					<g>
						<path class="st6" d="M-588.8,613.1c2.9-0.9,5.5-2.8,6.9-5.8c2.7-5.5,0.4-12.2-5.1-14.9c-0.3-0.2-24.2-12.4-38.3-39.5
							c-2.8-5.5-9.6-7.5-15-4.7c-5.5,2.8-7.5,9.6-4.7,15c17.6,33.9,47,48.6,48.3,49.2C-594.2,613.7-591.3,613.8-588.8,613.1z"/>
					</g>
					<g>
						<path class="st6" d="M-550.8,897.4c-11,0-20.9-7.8-23.1-18.9c-8.6-42.8-13.1-103.1-13.5-179.1c-0.3-56.2,1.8-99.4,2-101.2
							c0.7-13,11.7-23,24.7-22.3c13,0.7,23,11.7,22.3,24.7l0,0c-0.1,1.7-8.4,173.1,10.7,268.6c2.6,12.8-5.7,25.2-18.5,27.7
							C-547.8,897.3-549.4,897.4-550.8,897.4z"/>
					</g>
					<path class="st7" d="M-527.7,869.2c-19.1-95.5-10.8-266.9-10.7-268.6l0,0c0.7-13-9.3-24.1-22.3-24.7c-1.4-0.1-2.7,0-4.1,0.2
						c12.2,1.5,21.2,12.2,20.6,24.6l0,0c-0.1,1.7-8.4,173.1,10.7,268.6c2.6,12.8-5.7,25.2-18.5,27.7c-0.6,0.1-1.2,0.2-1.7,0.3
						c0.9,0.1,2,0.2,2.9,0.2c1.5,0,3.1-0.2,4.6-0.4C-533.5,894.4-525.2,882-527.7,869.2z"/>
					<path class="st7" d="M-590,606.6c2.7-5.5,0.4-12.2-5.1-14.9c-0.3-0.2-24.2-12.4-38.3-39.5c-1.1-2.1-2.9-3.8-4.9-4.8
						c5-1.5,10.5,0.7,13,5.5c14.1,27.1,38,39.4,38.3,39.5c5.5,2.7,7.7,9.3,5.1,14.9c-1.5,2.9-4,5-6.9,5.8c-2.6,0.8-5.4,0.5-8-0.7
						h-0.1C-593.9,611.5-591.4,609.5-590,606.6z"/>
					<path class="st8" d="M-540.1,721c-11.6,0.1-23.1-0.2-34.8,0.2c-4.1,0.2-8.2,1-12.4,1.5c1.1,65.1,5.6,117.4,13.3,155.7
						c2.2,11.2,12.1,18.9,23.1,18.9c1.5,0,3.1-0.2,4.6-0.4c12.8-2.6,21.1-15,18.5-27.7C-536.1,827.5-539.2,771.3-540.1,721z"/>
					<path class="st9" d="M-533.6,869.2c2.6,12.8-5.7,25.2-18.5,27.7c-0.6,0.1-1.2,0.2-1.7,0.3c0.9,0.1,2,0.2,2.9,0.2
						c1.5,0,3.1-0.2,4.6-0.4c12.8-2.6,21.1-15,18.5-27.7c-8.5-42.4-11.6-99.6-12.3-150.5c-2,0-3.9,0-5.8,0
						C-545.1,769.6-542,826.8-533.6,869.2z"/>
					<g>
						<path class="st6" d="M-591.1,571.7c6.1-0.3,10.7-5.5,10.4-11.6l-3.3-67.8c-0.3-6.1-5.5-10.8-11.6-10.5h-0.1
							c-6.1,0.3-10.7,5.5-10.4,11.6l3.3,67.8C-602.5,567.3-597.2,572-591.1,571.7C-591.2,571.7-591.2,571.7-591.1,571.7z"/>
					</g>
					<path class="st7" d="M-598.2,568L-598.2,568c6.2-0.3,10.8-5.5,10.4-11.6l-3.3-67.8c-0.1-2.6-1.1-4.8-2.7-6.6
						c5.2,0.7,9.3,5,9.6,10.4l3.3,67.8c0.3,6.1-4.4,11.2-10.4,11.6h-0.1c-3.6,0.2-6.8-1.4-8.9-3.9C-599.6,568-598.9,568-598.2,568z"
						/>
					<g>
						<path class="st6" d="M-568.6,555.5c4.8-0.9,8.4-5.2,8.4-10.3l0.1-64.5c0-5.8-4.7-10.5-10.4-10.5c-5.8,0-10.5,4.7-10.5,10.4
							l-0.1,64.5c0,5.8,4.7,10.5,10.4,10.5C-569.9,555.6-569.3,555.6-568.6,555.5z"/>
					</g>
					<path class="st7" d="M-576.9,552c4.8-0.9,8.4-5.2,8.4-10.3l0.1-64.5c0-2.7-1-5.1-2.7-7c0.2,0,0.3,0,0.5,0
						c5.8,0,10.4,4.7,10.4,10.5l-0.1,64.5c0,5.1-3.6,9.3-8.4,10.3c-0.7,0.2-1.4,0.2-2.1,0.2c-3.1,0-5.8-1.4-7.8-3.4
						C-577.9,552.1-577.4,552.1-576.9,552z"/>
					<g>
						<path class="st6" d="M-549.3,558c3.8-1,6.8-4.2,7.4-8.2l7.9-56.3c0.8-5.5-3-10.4-8.5-11.2c-5.5-0.8-10.4,3-11.2,8.5l-7.9,56.3
							c-0.8,5.5,3,10.4,8.5,11.2C-551.9,558.5-550.5,558.4-549.3,558z"/>
					</g>
					<path class="st7" d="M-559,554.1c1.4,0.2,2.7,0.1,3.9-0.3c3.8-1,6.8-4.2,7.4-8.2l7.9-56.3c0.3-2.5-0.3-4.9-1.5-6.8
						c4.9,1.2,8.1,6,7.4,11l-7.9,56.3c-0.6,4.1-3.6,7.3-7.4,8.2c-1.2,0.3-2.6,0.4-3.9,0.3c-2.9-0.4-5.4-2.1-6.9-4.4
						C-559.8,553.9-559.4,554-559,554.1z"/>
					<g>
						<path class="st6" d="M-567.1,623.1c22.3-0.4,40.1-17.5,39.7-38.1l0.1-10.9c-0.3-20.6-18.8-37-41.2-36.6l0,0
							c-22.3,0.4-40.1,17.5-39.7,38.1l-0.1,10.9C-607.9,607.2-589.5,623.5-567.1,623.1L-567.1,623.1z"/>
					</g>
					<g>
						<path class="st6" d="M-534.7,575.5c4-1.1,6.8-4.8,6.8-9.2c0-5.2,7.8-31.8,13.1-49.2c1.8-5.8-0.8-12-5.6-13.5
							c-4.8-1.8-9.8,0.9-11.2,5.4c-3.2,10.7-15.2,47.2-15.1,57.5c0.1,5.2,4.3,9.4,9.5,9.3C-536.3,575.8-535.4,575.7-534.7,575.5z"/>
					</g>
					<path class="st7" d="M-561.5,599.9c0,0-5.1-13.3-13.3-19.7c-8.5-5.9-18.8-4.6-23.5-5.7c13.5-1.2,24.4,1.5,36.1,0.4
						c11.7-1.1,25.5-2.5,25.5-2.5S-556.4,579.7-561.5,599.9z"/>
					<path class="st6" d="M-611.6,602.7c13.5,8.9,24.7,18.2,24.7,33.5c0,15.2,12,10.4,12,10.4l-0.8-36.4L-611.6,602.7z"/>
					<path class="st8" d="M-536.4,735.5h-51.4c-3.1,0-5.6-2.5-5.6-5.6v-18.7c0-3.1,2.5-5.6,5.6-5.6h51.4c3.1,0,5.6,2.5,5.6,5.6v18.7
						C-530.8,733-533.3,735.5-536.4,735.5z"/>
					<path class="st9" d="M-536.4,705.7h-13.4c3.1,0,5.6,2.5,5.6,5.6v15.9c0,3.1-2.5,5.6-5.6,5.6h-40.9c-0.8,0-1.5-0.2-2.1-0.4
						c0.9,1.9,2.8,3.2,5,3.2h51.4c3.1,0,5.6-2.5,5.6-5.6v-18.7C-530.8,708.2-533.3,705.7-536.4,705.7z"/>
					<circle class="st9" cx="-578.5" cy="719.6" r="6.5"/>
					<circle class="st10" cx="-579.2" cy="718.7" r="6.5"/>
					<circle class="st11" cx="-579.2" cy="718.7" r="4.6"/>
					<circle class="st12" cx="-580.6" cy="717.4" r="0.9"/>
					<circle class="st12" cx="-577.9" cy="720.1" r="0.9"/>
					<line class="st13" x1="-580.5" y1="717.4" x2="-577.8" y2="720.2"/>
					<path class="st7" d="M-547.5,618.6c0.1-7.4,0.7-7.1,1.5-8.4c7.4-6.9,11.8-16.4,11.6-26.8l0.1-10.9c0-2.1-0.3-4.2-0.7-6.2
						c0.1-0.5,0.2-1.1,0.2-1.7c0-5.2,8-32.3,13.6-50.7c1-3.3-0.3-8.2-3.5-10.8c1.4-0.3,2.9-0.2,4.4,0.3c4.9,1.5,7.4,7.7,5.6,13.5
						c-5.3,17.5-13.1,44-13.1,49.2c0,0.6-0.1,1.1-0.2,1.7c0.4,2,0.6,4.1,0.7,6.2l-0.1,10.9c0.1,5.1-0.9,9.9-2.8,14.4
						c-2,4.7-8.8,14-10.9,28.6c-1.6,8,0.3,31,0.3,31l-5.3-7.5C-546.1,651.5-547.6,626-547.5,618.6z"/>
				</g>
				<path class="st1" d="M-316.6,454.9c-5.1-9.9-12.6-18.7-21.5-25.4l0,0l0,0c-5.9-4.5-12.7-8.5-15.1-16c-1.3-4.1-0.8-8.6-0.7-12.8
					c0.1-5.8,0.2-11.6,0.3-17.5c0.1-6.7,0-13.3,0-19.9h0.3c2,0,3.6-1.6,3.6-3.6v-12.1c0-2-1.6-3.6-3.6-3.6h-0.6
					c-0.8-29.8-2.3-59.8-7.8-89.1c-0.8-3.9-1.7-7.6-4.6-10.5c-2.8-2.9-6.8-4.5-10.8-4.5c-5.9,0-11.3,3.5-13.8,8.8
					c-1.5,3.3-1.6,6.8-0.9,10.3c0.7,3.7,1.4,7.4,1.9,11c2.3,15.5,3.7,31.1,4.5,46.7c0.5,9.2,0.9,18.2,1.1,27.4h-2.1
					c-2,0-3.6,1.6-3.6,3.6v12c0,2,1.6,3.6,3.6,3.6h2.5c0.3,26.5-0.4,49.2-0.9,60.3c-4.7,4.5-7.6,10.5-7.4,17.3v7
					c0,1.4,0.2,2.7,0.4,4c-0.4,2.3-0.6,4.7-1.1,7c-0.8,3.3-1.6,6.5-2.5,9.8c-0.9,3.3-1.7,6.4-2.6,9.7c-0.9,3.3-0.5,7.3,2.7,9.2l0,0
					c0.2,0.1,0.4,0.3,0.7,0.3c1.5,0.7,3.3,0.4,4.7-0.4c1.5-0.9,2.1-2.3,2.6-3.9c1.2-3.9,2.4-7.7,3.5-11.6l-2.8,22.9
					c-0.4,2.8,1,5.4,3.5,6.3l0,0c3.3,1.1,8-0.9,8.5-4.6l3.7-25.3l0.6,30.3c0.2,3.3,3.3,6,6.8,5.7c3.9-0.3,6.5-3.3,6.4-6.2l-0.5-31.1
					c0.2-0.1,0.3-0.1,0.5-0.2l1.5,25.3c0.3,2.7,3.8,4.3,7.6,3.3c3.4-1,6.1-3.8,5.9-7.4c-0.1-2-0.2-4.1-0.3-6.4
					c-0.3-7.4-0.7-14.5-0.9-20.7c-0.1-1.6-0.2-3.3-0.2-4.9c2.2-3.7,3.4-7.9,3.3-12.2v-0.3c2.8,2.8,5.3,5.8,7.5,9.2
					c1.2,1.8,2.3,3.7,3.3,5.6c0.9,1.6,2.1,2.9,3.9,3.6l0,0C-319.6,467.2-313.7,460.7-316.6,454.9
					C-316.8,454.5-314.8,458.4-316.6,454.9z"/>
				<g>
					<g>
						<path class="st6" d="M-356.1,420.4c-1.9,0.5-3.5,1.8-4.5,3.8c-1.7,3.5-0.3,7.8,3.3,9.6c0.3,0.1,15.6,8,24.7,25.4
							c1.8,3.5,6.1,4.9,9.7,3c3.5-1.8,4.9-6.2,3-9.7c-11.4-21.8-30.2-31.2-31.1-31.7C-352.7,420-354.5,420-356.1,420.4z"/>
					</g>
					<g>
						<path class="st6" d="M-390.9,444.6c-2.6,0.8-4.5,3.1-4.4,5.9c0,3.3-4.3,18.7-6.4,26.6c-0.8,2.9,0.7,7,3.7,8.3
							c2.9,1.4,6.1-0.7,6.8-3.2c1.9-5.8,8-25.3,8-31.9c0-3.3-2.7-6.1-6.2-6C-389.9,444.4-390.4,444.4-390.9,444.6z"/>
					</g>
					<path class="st7" d="M-389.3,444.4c-0.6,0-1.1,0.1-1.6,0.3c-0.3,0.1-0.7,0.3-0.9,0.3c2.1,0.9,3.4,3,3.4,5.4
						c0.1,6.7-5.9,25.7-7.5,31.3c-0.3,1.1-1.5,2.7-2.7,3.4c0.2,0.1,0.4,0.3,0.7,0.3c2.9,1.4,6.1-0.7,6.8-3.2c1.9-5.8,8-25.3,8-31.9
						C-383.2,447.1-386,444.4-389.3,444.4z"/>
					<g>
						<path class="st6" d="M-380.5,237.5c7.1,0,13.4,5,14.9,12.2c5.5,27.6,8.5,66.3,8.7,115.2c0.2,36.1-1.2,63.9-1.3,65.1
							c-0.4,8.4-7.5,14.8-15.9,14.4s-14.8-7.5-14.4-15.9l0,0c0.1-1.1,5.4-111.4-6.9-172.9c-1.6-8.2,3.7-16.2,11.9-17.9
							C-382.5,237.5-381.4,237.5-380.5,237.5z"/>
					</g>
					<path class="st7" d="M-357,364.8c-0.3-49-3.2-87.7-8.7-115.2c-1.5-7.2-7.8-12.2-14.9-12.2c-0.9,0-1.7,0.1-2.7,0.3
						c6,1,11,5.6,12.2,12c5.5,27.6,8.5,66.3,8.7,115.2c0.2,36.1-1.2,63.9-1.3,65.1c-0.3,7.2-5.7,13-12.5,14.2
						c0.6,0.1,1.2,0.2,1.9,0.2c8.4,0.4,15.5-6,15.9-14.4C-358.2,428.8-356.8,401-357,364.8z"/>
					<path class="st3" d="M-387.4,351c7.4-0.1,14.9,0.1,22.3-0.1c2.7-0.1,5.3-0.7,8-1c-0.8-41.9-3.6-75.6-8.6-100.2
						c-1.5-7.2-7.8-12.2-14.9-12.2c-1,0-2,0.1-3,0.3c-8.2,1.6-13.5,9.7-11.9,17.9C-390,282.5-388,318.6-387.4,351z"/>
					<g>
						<path class="st14" d="M-365.6,249.6c-1.5-7.2-7.8-12.2-14.9-12.2c-0.9,0-1.7,0.1-2.7,0.3c6,1,11,5.6,12.2,12
							c5,24.7,7.8,58.3,8.6,100.2c-2.7,0.3-5.4,0.9-8,1c-2.6,0.1-5.1,0.1-7.5,0.1c4.3,0,8.6,0,12.8-0.1c2.7-0.1,5.3-0.7,8-1
							C-357.8,307.9-360.7,274.3-365.6,249.6z"/>
						<path class="st15" d="M-387.4,351L-387.4,351c0.4,0,0.9,0,1.4,0C-386.6,351-387,351-387.4,351z"/>
					</g>
					<g>
						<path class="st6" d="M-354.6,447c-3.9,0.3-6.8,3.5-6.7,7.4l2.3,37.8c0.4,3,3.9,5.1,7.6,4.4h0.1c3.7-0.8,6.2-4.1,5.8-6.8
							l-1.6-36C-347.3,449.8-350.6,446.8-354.6,447L-354.6,447z"/>
					</g>
					<g>
						<path class="st6" d="M-369.1,457.5c-3.1,0.6-5.4,3.3-5.4,6.6l0.7,34.8c0.2,3.3,3.1,6.1,6.7,5.9c3.7,0,6.7-2.8,6.6-6.2
							l-0.5-34.5c0-3.8-3-6.8-6.8-6.8C-368.3,457.4-368.7,457.5-369.1,457.5z"/>
					</g>
					<path class="st7" d="M-367.8,457.4c-0.4,0-0.9,0.1-1.4,0.2s-0.9,0.3-1.3,0.4c2.4,1,4.1,3.4,4.1,6.2l0.5,34.5
						c0.1,2.5-1.5,4.7-3.9,5.7c0.8,0.3,1.6,0.4,2.5,0.4c3.7-0.1,6.7-2.8,6.6-6.2l-0.5-34.5C-361.1,460.5-364.1,457.4-367.8,457.4z"
						/>
					<g>
						<path class="st6" d="M-381.5,455.8c-2.4,0.6-4.4,2.7-4.7,5.3l-3.9,31.2c-0.5,3.4,1.8,6.5,5.2,6.6c3.4,0.1,6.5-2.1,6.8-5
							l4.6-31c0.5-3.5-2-6.8-5.5-7.3C-379.9,455.6-380.8,455.7-381.5,455.8z"/>
					</g>
					<path class="st7" d="M-379,455.7c-0.9-0.1-1.7-0.1-2.5,0.2c-0.3,0.1-0.7,0.2-1,0.3c2.6,1.1,4.1,3.9,3.7,6.8l-4.4,31.1
						c-0.2,1.9-1.5,3.6-3.4,4.6c0.5,0.2,1.1,0.3,1.7,0.3c3.4,0.1,6.4-2.1,6.8-5l4.6-31C-373.1,459.4-375.5,456.3-379,455.7z"/>
					<g>
						<path class="st6" d="M-370.1,414c-14.4,0.3-25.9,11.2-25.6,24.5v7c0.3,13.3,12.1,23.8,26.4,23.5l0,0
							c14.4-0.1,25.9-11.1,25.7-24.4v-7C-343.9,424.2-355.7,413.7-370.1,414L-370.1,414z"/>
					</g>
					<path class="st7" d="M-373.7,428.9c0,0,3.3,8.6,8.6,12.7c5.5,3.8,12.1,3,15.2,3.7c-8.7,0.8-15.7-1-23.3-0.3
						c-7.5,0.7-16.4,1.6-16.4,1.6S-377,442-373.7,428.9z"/>
					<path class="st6" d="M-341.4,427.1c-8.6-5.7-15.9-11.7-15.9-21.6c0-9.8-7.7-6.7-7.7-6.7l0.5,23.5L-341.4,427.1z"/>
					<g>
						<path class="st7" d="M-319.9,452.6c-6.3-12.1-14.9-20.4-21.5-25.4l0,0l0,0c-2-1.5-3.8-2.7-5.2-3.7
							c-6.2-4.7-10.7-10.1-10.7-17.8c0-5.9-2.8-7.1-5.1-7.1c-0.1,3-0.3,6.3-0.3,7.1c0,7.7,4.5,13.1,10.7,17.8
							c1.5,0.9,3.3,2.1,5.2,3.7l0,0l0,0c6.6,5.1,15.2,13.4,21.5,25.4c1.8,3.5,0.4,7.8-3.1,9.7c-0.3,0.1-0.4,0.3-0.7,0.3
							c1.9,0.8,4,0.7,5.9-0.3C-319.5,460.4-318.1,456.1-319.9,452.6z"/>
						<path class="st7" d="M-346.9,456.7c1.3-2.1,3.3-6.2,3.3-12.2c-1.5-2-4.3-3.4-4.3-3.4s0.6,1.6,0.6,5.5c0,3.9-1.5,7-5,10.1
							l1.8,34.2c0.3,2.1-1.3,4.5-3.9,5.7c0.9,0.2,1.9,0.2,2.9,0h0.1c3.7-0.8,6.2-4.1,5.8-6.8L-346.9,456.7z"/>
					</g>
					<path class="st3" d="M-389.8,341.6h33.1c2,0,3.6,1.6,3.6,3.6v12c0,2-1.6,3.6-3.6,3.6h-33.1c-2,0-3.6-1.6-3.6-3.6v-12
						C-393.4,343.3-391.8,341.6-389.8,341.6z"/>
					<path class="st14" d="M-356.7,360.8h-8.6c2,0,3.6-1.6,3.6-3.6v-10.3c0-2-1.6-3.6-3.6-3.6h-26.3c-0.4,0-0.9,0.1-1.4,0.3
						c0.6-1.2,1.8-2.1,3.3-2.1h33.1c2,0,3.6,1.6,3.6,3.6v12C-353.1,359.2-354.7,360.8-356.7,360.8z"/>
					<circle class="st3" cx="-361.4" cy="353.3" r="4.2"/>
					<circle class="st10" cx="-362.3" cy="352.4" r="4.2"/>
					<circle class="st16" cx="-362.3" cy="352.4" r="2.9"/>
					<circle class="st12" cx="-361.4" cy="353.3" r="0.6"/>
					<circle class="st12" cx="-363.1" cy="351.6" r="0.6"/>
					<line class="st17" x1="-361.4" y1="353.3" x2="-363.2" y2="351.5"/>
				</g>
			</g>
		</g>
		<g>
			<defs>
				<rect id="SVGID_5_" x="-673" y="327" width="428" height="428"/>
			</defs>
			<clipPath id="SVGID_6_">
				<use xlink:href="#SVGID_5_"  style="overflow:visible;"/>
			</clipPath>
			<g class="st18">
				<path class="st19" d="M-565.7,680.9v-28.6c0-21.4,13.7-38.7,30.6-38.7l0,0c16.9,0,30.6,17.4,30.6,38.7v9.7
					c0,14.8,9.4,26.8,21.1,26.8h0.9c11.6,0,21.1-12,21.1-26.8v-94.2c0-14.8,9.4-26.8,21.1-26.8l0,0c11.6,0,21.1,12,21.1,26.8v35.5"
					/>
				<g>
					<path class="st2" d="M-559.8,678.3c0,0,0.2,0.3,0.3,0.9c0.2,0.6,0.3,1.4,0.3,2.4c0,0.9-0.2,2.1-0.5,3.3
						c-0.2,0.6-0.4,1.3-0.7,1.9l-0.2,0.5c0,0.2-0.3,0.3-1,0.5l-2.1,0.5c-0.2,0-0.3,0.1-0.3,0.1c-0.1,0-0.2,0.1-0.3,0.1
						c-0.1,0.1-0.1,0.2-0.1,0.3c-0.5,2.7-0.9,5.2-0.9,7.2c-0.1,2,0.1,3.3,0.1,3.3c0,0.3-0.2,0.6-0.5,0.6s-0.6-0.2-0.6-0.5
						c0-0.1,0-0.1,0-0.2c0,0,0.2-1.3,0.1-3.3c-0.1-2-0.3-4.5-0.9-7.2c0-0.1,0-0.2-0.1-0.3c-0.1,0-0.1-0.1-0.3-0.1
						c-0.1,0-0.2-0.1-0.3-0.1l-2.1-0.5c-0.7-0.2-1-0.3-1-0.5l-0.2-0.5c-0.3-0.7-0.5-1.3-0.7-1.9c-0.3-1.2-0.5-2.4-0.5-3.3
						s0.1-1.8,0.3-2.4s0.3-0.9,0.3-0.9c1.8-3.3,5.9-4.5,9.2-2.7C-561.3,676.2-560.4,677.2-559.8,678.3z"/>
				</g>
				<g>
					<rect x="-578.8" y="667.3" class="st2" width="25.3" height="6.1"/>
					<path class="st20" d="M-562.6,672.7h-7.3c-1.3,0-2.2-1-2.2-2.2l0,0c0-1.3,1-2.2,2.2-2.2h7.3c1.3,0,2.2,1,2.2,2.2l0,0
						C-560.3,671.6-561.3,672.7-562.6,672.7z"/>
				</g>
				<g>
					<rect x="-578.8" y="650.3" class="st2" width="25.3" height="6.1"/>
					<path class="st20" d="M-562.6,655.6h-7.3c-1.3,0-2.2-1-2.2-2.2l0,0c0-1.3,1-2.2,2.2-2.2h7.3c1.3,0,2.2,1,2.2,2.2l0,0
						C-560.3,654.7-561.3,655.6-562.6,655.6z"/>
				</g>
			</g>
		</g>
		<g>
			<defs>
				<rect id="SVGID_7_" x="-673" y="327" width="428" height="428"/>
			</defs>
			<clipPath id="SVGID_8_">
				<use xlink:href="#SVGID_7_"  style="overflow:visible;"/>
			</clipPath>
			<g class="st21">
				<path class="st22" d="M-383.2,626.1v-79.6c0-12.8-11.1-23.3-24.8-23.3l0,0c-13.7,0-24.8-10.4-24.8-23.3v-58.2
					c0-11.2,9.7-20.3,21.6-20.3l0,0c11.9,0,21.6-9.1,21.6-20.3v-26.5"/>
				<path class="st22" d="M-389.7,381.5v31.2c0,11.9-9.7,21.6-21.6,21.6l0,0c-11.9,0-21.6,9.7-21.6,21.6v46.7
					c0,11.9,9.7,21.6,21.6,21.6h0.9c11.9,0,21.6,9.7,21.6,21.6v56.2"/>
				<path class="st19" d="M-372.5,381.5v21.8c0,11.9-9.7,21.6-21.6,21.6l0,0c-11.9,0-21.6,9.7-21.6,21.6v36.4
					c0,24.1,19.4,43.5,43.5,43.5l0,0c24.1,0,26.4,19.4,26.4,43.5v40.1"/>
				<g>
					<g>
						<path class="st2" d="M-378.4,383.2c0,0-0.2-0.3-0.3-0.9c-0.2-0.5-0.3-1.4-0.3-2.3c0-0.9,0.2-2.1,0.5-3.2
							c0.2-0.6,0.3-1.2,0.7-1.8l0.2-0.4c0-0.2,0.3-0.3,1-0.4l2-0.4c0.2,0,0.2-0.1,0.3-0.1c0.1,0,0.2-0.1,0.3-0.1
							c0.1-0.1,0.1-0.2,0.1-0.3c0.5-2.5,0.8-5.1,0.9-6.8c0-0.9,0-1.7,0-2.3c0-0.5-0.1-0.9-0.1-0.9c0-0.3,0.2-0.6,0.4-0.6
							c0.3,0,0.6,0.2,0.6,0.4c0,0.1,0,0.1,0,0.2c0,0-0.1,0.3-0.1,0.9c0,0.5,0,1.4,0,2.3c0.1,1.9,0.3,4.4,0.9,6.8
							c0,0.1,0,0.2,0.1,0.3c0.1,0,0.1,0.1,0.3,0.1c0.1,0,0.2,0.1,0.3,0.1l2,0.4c0.7,0.2,1,0.3,1,0.4l0.2,0.4
							c0.3,0.6,0.4,1.2,0.7,1.8c0.3,1.2,0.5,2.3,0.5,3.2c0,0.9-0.1,1.7-0.3,2.3c-0.2,0.5-0.3,0.9-0.3,0.9c-1.7,3.2-5.6,4.4-8.8,2.7
							C-376.8,385.2-377.8,384.3-378.4,383.2z"/>
					</g>
					<g>
						<rect x="-384.3" y="387.9" class="st2" width="24.2" height="5.8"/>
						<path class="st20" d="M-375.6,388.7h6.9c1.2,0,2.1,0.9,2.1,2.1l0,0c0,1.2-0.9,2.1-2.1,2.1h-6.9c-1.2,0-2.1-0.9-2.1-2.1l0,0
							C-377.8,389.7-376.8,388.7-375.6,388.7z"/>
					</g>
					<g>
						<rect x="-384.3" y="404.2" class="st2" width="24.2" height="5.8"/>
						<path class="st20" d="M-375.6,404.9h6.9c1.2,0,2.1,0.9,2.1,2.1l0,0c0,1.2-0.9,2.1-2.1,2.1h-6.9c-1.2,0-2.1-0.9-2.1-2.1l0,0
							C-377.8,405.9-376.8,404.9-375.6,404.9z"/>
					</g>
				</g>
			</g>
		</g>
	</g>
</g>
<g id="DESIGNED_BY_FREEPIK">
</g>
</svg>
