<?xml version="1.0" encoding="utf-8"?>
<!-- Generator: Adobe Illustrator 19.0.0, SVG Export Plug-In . SVG Version: 6.00 Build 0)  -->
<svg version="1.1" id="Calque_1" xmlns="http://www.w3.org/2000/svg" xmlns:xlink="http://www.w3.org/1999/xlink" x="0px" y="0px"
	 viewBox="974 206 2560 381" style="enable-background:new 974 206 2560 381;" xml:space="preserve">
<style type="text/css">
	.st0{fill:#FFFFFF;}
	.st1{fill:url(#path-2_2_);}
	.st2{opacity:7.000000e-002;fill:#FFCCCC;enable-background:new    ;}
	.st3{opacity:0.1;fill:#FFCC99;enable-background:new    ;}
	.st4{opacity:0.2;fill:#FFD0B3;enable-background:new    ;}
	.st5{opacity:0.1;fill:url(#Path-7_2_);enable-background:new    ;}
</style>
<title>bg2</title>
<desc>Created with Sketch.</desc>
<g>
	<g>
		<path id="path-2" class="st0" d="M3536.9,536.3c-427.4,33.3-854.6,50-1282,50s-854.6-16.7-1282-50v-331h2564V536.3L3536.9,536.3z"
			/>
	</g>
	<g id="Homepage---PreLaunch" transform="translate(0.000000, -1687.000000)">
		<g id="bg2" transform="translate(0.000000, 1687.000000)">
			<g id="Rectangle-3">
				
					<linearGradient id="path-2_2_" gradientUnits="userSpaceOnUse" x1="699.9166" y1="-5318.1938" x2="698.8724" y2="-5319.1538" gradientTransform="matrix(-2560 0 0 -381 1792774.25 -2026034.375)">
					<stop  offset="3.268069e-003" style="stop-color:#D8143A"/>
					<stop  offset="0.6566" style="stop-color:#FF7275"/>
					<stop  offset="1" style="stop-color:#FF3F62"/>
				</linearGradient>
				<path id="path-2_1_" class="st1" d="M3536.9,536.3c-427.4,33.3-854.6,50-1282,50s-854.6-16.7-1282-50v-331h2564V536.3
					L3536.9,536.3z"/>
			</g>
			<g id="Group-6">
				<g transform="translate(-291.000000, -787.000000)">
					<path id="Path-2" class="st2" d="M1245.9,1033c465.2,89,758.5,98.1,879.7,27.2c181.9-106.4,106.3-205.1,263.9-260.4
						c157.6-55.3,369.7-67.4,422.9-178.9c53.3-111.5,593.8-106.2,505.9,58.4c-88,164.6-461.7,96.1-505.9,294.9
						s320.1,179.9,405.5,263c57,55.4,57,116.8,0,184.1h901.4V520.8H1245.9L1245.9,1033L1245.9,1033z"/>
					<path id="Path-5" class="st3" d="M2104,647.5c-558.9,396.7-782.7,581.8-671.4,555.4c166.9-39.7,120.6,39.7,441.7-83.3
						s428.4-95.3,559.5-333.3C2521.2,627.6,2411.2,581.4,2104,647.5z"/>
					<path id="Path-6" class="st4" d="M3825.4,1352.4c-30.7,5.9-48.5,2.7-53.3-9.6c-7.2-18.5-66.6,30.5-63.2-19.7
						c3.4-50.2,26.9-87.1,62.4-106.6s90.2-17.5,111.8,44.9C3897.4,1302.9,3878.1,1333.2,3825.4,1352.4z"/>
					<path id="Path-7" class="st3" d="M1399.1,1906.4c174-126.9,210.7-147,250.9-290.6s608.9-477.7,455-474.3
						s-294.4,110.2-455,130.3c-160.5,20-217.4,116.9-341.2,213.8c-82.5,64.6-238.7,226-468.4,484.4
						c109.3-33.4,148.3,3.3,117.1,110.2c-46.9,160.3,224.1,43.4,287.7-33.4C1308.7,1969.9,1225.1,2033.3,1399.1,1906.4z"/>
					
						<linearGradient id="Path-7_2_" gradientUnits="userSpaceOnUse" x1="1860.7184" y1="-5319.8823" x2="1861.3883" y2="-5320.3301" gradientTransform="matrix(1456.7214 0 0 717.5326 -2708029 3818683.25)">
						<stop  offset="0" style="stop-color:#FFE8C9;stop-opacity:0"/>
						<stop  offset="1" style="stop-color:#FFCC99"/>
					</linearGradient>
					<path id="Path-7_1_" class="st5" d="M2582.6,1678.4c-200.9,77.7-103.7,38-185,95.7c-81.3,57.8-373.4,100.7-286.5-42.1
						c57.9-95.2,29.6-140.8-84.5-136.7c288.8-190.2,481.5-305.8,578-346.8c144.7-61.6,224.7-140.5,385-118.3s323.8-44.8,473.2-8.3
						c149.5,36.5-486.4,212.2-562.5,340.6S2783.5,1600.7,2582.6,1678.4z"/>
					<path id="Path-9" class="st4" d="M958.9,1139.7c-8.3,139.3,26.9,229.8,106,271.4c118.5,62.5,272.8,2.9,237.6-132.7
						c-35.4-135.6,85.4-163.4,14.3-264.8c-71.1-101.5-314.7-127.4-337.4-23.1C964.1,1059.9,957.4,1109.7,958.9,1139.7z"/>
				</g>
			</g>
		</g>
	</g>
</g>
</svg>
